<svg width="30" height="40" viewBox="0 0 30 40" fill="none" xmlns="http://www.w3.org/2000/svg">
<path fill-rule="evenodd" clip-rule="evenodd" d="M23.5248 0.0613145C19.7652 0.622255 17.125 2.35684 15.8438 5.10778C15.3168 6.23926 15.0068 7.6242 15.0068 8.84732V9.19325L15.3551 9.16602C16.5022 9.07633 17.7909 8.78617 18.7576 8.39995C21.9018 7.14372 23.7674 4.43462 24.0054 0.779871C24.0465 0.14843 24.0354 -0.00743045 23.9498 0.000529926C23.9239 0.00297927 23.7327 0.0302895 23.5248 0.0613145ZM21.7135 12.2704C20.5441 12.3459 20.067 12.4648 17.4949 13.3217L15.2266 14.0776L13.9923 13.6674C13.3134 13.4418 12.4336 13.1491 12.0373 13.0168C10.7943 12.6022 9.87402 12.459 8.71799 12.5005C5.88747 12.602 3.68468 13.9682 1.89296 16.7334C-0.577826 20.5466 -0.629888 25.3796 1.7369 31.2145C3.24326 34.928 5.1885 37.7647 7.15399 39.114C8.27037 39.8804 9.31368 40.1311 10.5823 39.9379C11.0929 39.8602 11.5767 39.7052 12.3185 39.3818C13.7099 38.7753 14.3296 38.6162 15.6329 38.5311C16.1753 38.4957 16.3382 38.4993 16.6479 38.5533C17.3252 38.6714 18.3211 38.9423 19.2657 39.2654C20.9405 39.8384 21.1999 39.8978 22.0121 39.894C22.4978 39.8918 22.6491 39.875 22.9673 39.7881C23.905 39.5321 24.749 38.9646 25.6899 37.9575C27.2509 36.2868 28.7433 33.7476 29.7452 31.058C30.0178 30.3261 30.0295 30.2864 29.9723 30.2864C29.8985 30.2864 29.1661 29.8976 28.8098 29.6692C26.9427 28.4725 25.7172 26.7337 25.2909 24.6761C25.207 24.2713 25.1851 24.0326 25.1677 23.3377C25.1442 22.3938 25.1854 21.8463 25.3388 21.0642C25.6666 19.3927 26.4505 17.9322 27.5446 16.9547C27.9115 16.6268 28.4632 16.2492 28.8015 16.0942C28.9409 16.0304 29.0555 15.969 29.0561 15.9577C29.0589 15.9039 28.4973 15.1824 28.2116 14.8728C26.5416 13.0634 24.1665 12.1122 21.7135 12.2704Z" fill="white"/>
</svg>
